<svg width="24" height="24" viewBox="0 0 24 24" fill="none" xmlns="http://www.w3.org/2000/svg">
<path d="M2.40456 11.9711C3.28054 13.9112 4.77234 16.0131 6.49734 17.7381C8.33718 19.5779 10.367 21.0349 12.213 21.8402C13.218 22.2788 14.1172 22.4981 14.8738 22.4981C15.6265 22.4981 16.2381 22.281 16.6723 21.8467L18.4134 20.1059C18.9424 19.5765 18.8949 18.668 18.3075 18.0803L15.7418 15.5145C15.1541 14.9272 14.2452 14.8799 13.7162 15.4088L12.9173 16.2078C12.6961 16.3733 11.3278 15.9519 9.78825 14.4125C8.24826 12.8726 7.82595 11.5034 7.99221 11.2841L8.79201 10.4845C9.32112 9.95508 9.27365 9.04629 8.68611 8.45889L6.12043 5.89307C5.53259 5.30566 4.62395 5.2582 4.09485 5.78745L2.35403 7.52813C1.48508 8.39692 1.50295 9.97485 2.40456 11.9711ZM3.20246 8.37671L4.94328 6.63589C4.9553 6.62388 4.97917 6.61685 5.01023 6.61685C5.0782 6.61685 5.18103 6.65083 5.27199 6.74165L7.83767 9.30732C7.97024 9.43989 7.98152 9.5978 7.94343 9.63589L7.14363 10.4355C6.14929 11.4302 7.2945 13.6159 8.93982 15.2609C9.7591 16.0802 10.66 16.7345 11.4766 17.1034C12.8208 17.7104 13.4873 17.335 13.765 17.0569L14.5647 16.2573C14.6032 16.219 14.7607 16.2306 14.8934 16.363L17.4589 18.9287C17.5915 19.0613 17.6029 19.2192 17.5648 19.2574L15.8239 20.9982C15.3407 21.4815 14.1705 21.3853 12.6929 20.7404C10.9811 19.9935 9.0822 18.6259 7.34577 16.8896C5.71936 15.2631 4.31692 13.2904 3.49822 11.4772C2.83655 10.0122 2.72595 8.85322 3.20246 8.37671ZM22.2885 13.3012C22.2885 6.79395 16.9946 1.5 10.4874 1.5V2.7C16.3329 2.7 21.0885 7.45576 21.0885 13.3012H22.2885Z" fill="#4BB165"/>
<path d="M10.7102 4.77734V5.97734C14.8712 5.97734 18.2565 9.3626 18.2565 13.5236H19.4565C19.4565 8.70093 15.5329 4.77734 10.7102 4.77734Z" fill="#4BB165"/>
<path d="M15.2017 13.5235H16.4017C16.4017 10.3853 13.8485 7.83203 10.7102 7.83203V9.03203C13.1868 9.03203 15.2017 11.0469 15.2017 13.5235Z" fill="#4BB165"/>
</svg>
