<svg width="24" height="24" viewBox="0 0 24 24" fill="none" xmlns="http://www.w3.org/2000/svg">
<path d="M22.455 5.01012C22.4371 4.96297 22.4145 4.91774 22.3875 4.87512C22.3768 4.84685 22.3642 4.81929 22.35 4.79262C22.2802 4.72332 22.2021 4.66286 22.1175 4.61262L21.99 4.56762H21.84H2.20499C2.15263 4.56209 2.09984 4.56209 2.04749 4.56762L1.91999 4.61262C1.88031 4.63418 1.84265 4.65929 1.80749 4.68762C1.76685 4.71631 1.72916 4.74897 1.69499 4.78512C1.68071 4.81178 1.66819 4.83934 1.65749 4.86762C1.57817 4.94811 1.52352 5.0496 1.49999 5.16012C1.49805 5.19009 1.49805 5.22015 1.49999 5.25012V18.7501C1.49999 18.949 1.57901 19.1398 1.71966 19.2805C1.86031 19.4211 2.05108 19.5001 2.24999 19.5001H21.75C21.9489 19.5001 22.1397 19.4211 22.2803 19.2805C22.421 19.1398 22.5 18.949 22.5 18.7501V5.25012C22.5019 5.22015 22.5019 5.19009 22.5 5.16012C22.4903 5.10869 22.4752 5.05841 22.455 5.01012ZM19.545 6.00012L12 11.8051L4.45499 6.00012H19.545ZM21 18.0001H2.99999V6.75012L11.5425 13.3201C11.6736 13.4211 11.8345 13.4758 12 13.4758C12.1655 13.4758 12.3263 13.4211 12.4575 13.3201L21 6.75012V18.0001Z" fill="#4BB165"/>
</svg>
