<svg width="134" height="43" viewBox="0 0 134 43" fill="none" xmlns="http://www.w3.org/2000/svg">
<path d="M8.47515 37.563C8.52307 38.1773 8.42 38.7933 8.17271 39.3706C7.92542 39.9479 7.53952 40.4734 7.04042 40.9125C5.87801 41.748 4.38771 42.1638 2.8797 42.0732H0V33.2123H3.20764C4.62913 33.1353 6.02839 33.546 7.1019 34.3553C7.57771 34.7771 7.9458 35.2806 8.18235 35.8331C8.41891 36.3857 8.51866 36.975 8.47515 37.563ZM6.22057 37.6073C6.22057 35.7052 5.25042 34.7541 3.31012 34.7541H2.16234V40.5226H3.09491C5.19235 40.5226 6.24107 39.5508 6.24107 37.6073H6.22057Z" fill="black"/>
<path d="M19.912 37.6342C20.0055 38.8573 19.5546 40.0651 18.6515 41.01C18.1806 41.4182 17.6142 41.7345 16.9902 41.9378C16.3663 42.1411 15.6992 42.2265 15.0339 42.1884C14.3686 42.2265 13.7015 42.1411 13.0776 41.9378C12.4536 41.7345 11.8872 41.4182 11.4163 41.01C10.5101 40.0596 10.0591 38.8453 10.1558 37.6164C10.057 36.3927 10.5086 35.1833 11.4163 34.2406C11.8916 33.8356 12.4605 33.5221 13.0857 33.3205C13.7109 33.119 14.3783 33.0339 15.0442 33.071C15.7079 33.0336 16.3731 33.1195 16.9953 33.3227C17.6175 33.526 18.1822 33.842 18.6515 34.2495C19.5552 35.1976 20.0061 36.4083 19.912 37.6342ZM12.4412 37.6342C12.381 38.4129 12.607 39.1882 13.0868 39.8493C13.3154 40.1028 13.6125 40.3041 13.9519 40.4354C14.2914 40.5667 14.6629 40.624 15.0339 40.6024C16.7693 40.6024 17.6369 39.6071 17.6369 37.6164C17.6369 35.6258 16.7761 34.6275 15.0544 34.6216C14.6819 34.6001 14.309 34.6574 13.9679 34.7886C13.6268 34.9199 13.3279 35.1211 13.097 35.3747C12.6017 36.0468 12.3715 36.8395 12.4412 37.6342Z" fill="black"/>
<path d="M26.3683 42.0732L23.8985 35.1267H23.8472C23.936 36.5384 23.9805 37.4806 23.9805 37.9531V42.0732H22.0333V33.2129H24.9848L27.4136 39.9821L29.9961 33.2218H32.9475V42.082H30.8979V37.8823C30.8979 37.6873 30.8979 37.457 30.8979 37.2C30.8979 36.9431 30.8979 36.252 30.9901 35.1444H31.0209L28.3564 42.0732H26.3683Z" fill="black"/>
<path d="M41.4637 42.0728H35.5608V33.2129H41.4637V34.7545H37.7334V36.6948H41.1972V38.2364H37.7334V40.5223H41.4637V42.0728Z" fill="black"/>
<path d="M47.4178 42.0728V33.2129H48.6066V42.0728H47.4178Z" fill="black"/>
<path d="M59.449 42.0728H58.086L52.4906 34.6393H52.4393C52.5076 35.5135 52.5418 36.3138 52.5418 37.0404V42.0728H51.4453V33.2129H52.7877L58.3729 40.6109H58.4242C58.4242 40.5046 58.4037 40.1531 58.3627 39.5566C58.3217 38.96 58.3217 38.5377 58.3627 38.2896V33.2218H59.4797L59.449 42.0728Z" fill="black"/>
<path d="M70.2607 42.0728H68.9387L63.3023 34.6393H63.251C63.3262 35.5135 63.3637 36.3138 63.3637 37.0404V42.0728H62.257V33.2129H63.6097L69.1949 40.6109H69.2461C69.2461 40.5046 69.2256 40.1531 69.1846 39.5566C69.1436 38.96 69.1436 38.5377 69.1846 38.2896V33.2218H70.3017L70.2607 42.0728Z" fill="black"/>
<path d="M81.964 37.6342C82.0446 38.8422 81.6026 40.0329 80.724 40.9747C80.2872 41.3844 79.7512 41.7057 79.1542 41.9155C78.5572 42.1254 77.9139 42.2186 77.2704 42.1886C76.6221 42.2231 75.9729 42.1338 75.369 41.927C74.765 41.7203 74.2211 41.4012 73.7758 40.9924C72.8955 40.038 72.4571 38.8347 72.546 37.6165C72.4579 36.4064 72.8966 35.2117 73.7758 34.2671C74.2245 33.8602 74.7707 33.543 75.3762 33.3379C75.9816 33.1328 76.6316 33.0447 77.2806 33.0798C77.9225 33.0505 78.564 33.1441 79.1593 33.3539C79.7545 33.5637 80.2888 33.8846 80.724 34.2937C81.6026 35.2355 82.0446 36.4262 81.964 37.6342ZM73.7655 37.6342C73.6848 38.6047 73.9963 39.5693 74.6469 40.3633C74.9829 40.6548 75.3822 40.886 75.8219 41.0438C76.2615 41.2016 76.7329 41.2829 77.2089 41.2829C77.6849 41.2829 78.1563 41.2016 78.5959 41.0438C79.0355 40.886 79.4348 40.6548 79.7709 40.3633C80.4124 39.566 80.7198 38.6031 80.642 37.6342C80.7213 36.6719 80.4176 35.7152 79.7812 34.9228C79.4635 34.6127 79.0664 34.3711 78.6216 34.2173C78.1768 34.0634 77.6965 34.0016 77.2191 34.0367C76.7374 34.0029 76.253 34.0652 75.8035 34.2188C75.3539 34.3725 74.9512 34.6133 74.6264 34.9228C73.999 35.7176 73.7093 36.6756 73.8065 37.6342H73.7655Z" fill="black"/>
<path d="M90.1009 33.2217H91.3819L87.6926 42.082H86.5141L82.8453 33.2217H84.1058L86.4526 38.9632C86.7134 39.592 86.929 40.2341 87.0982 40.8859C87.2683 40.2217 87.4874 39.5677 87.7541 38.9277L90.1009 33.2217Z" fill="black"/>
<path d="M99.2319 42.0728L97.9612 39.2553H93.8619L92.6014 42.0728H91.3819L95.4811 33.2129H96.5059L100.533 42.0728H99.2319ZM97.582 38.3339L96.3932 35.5873C96.2361 35.2388 96.0789 34.8136 95.9218 34.3115C95.8032 34.7437 95.6561 35.1697 95.4811 35.5873L94.2719 38.3339H97.582Z" fill="black"/>
<path d="M105.022 42.0728H103.782V34.0989H100.533V33.2129H108.209V34.0989H104.961L105.022 42.0728Z" fill="black"/>
<path d="M109.808 42.0728V33.2129H110.956V42.0728H109.808Z" fill="black"/>
<path d="M122.7 37.6342C122.781 38.8422 122.339 40.0329 121.46 40.9747C121.023 41.3844 120.487 41.7057 119.89 41.9155C119.293 42.1254 118.65 42.2186 118.006 42.1886C117.358 42.2231 116.709 42.1338 116.105 41.927C115.501 41.7203 114.957 41.4012 114.512 40.9924C113.631 40.038 113.193 38.8347 113.282 37.6165C113.194 36.4064 113.633 35.2117 114.512 34.2671C114.961 33.8602 115.507 33.543 116.112 33.3379C116.718 33.1328 117.368 33.0447 118.017 33.0798C118.659 33.0505 119.3 33.1441 119.895 33.3539C120.491 33.5637 121.025 33.8846 121.46 34.2937C122.339 35.2355 122.781 36.4262 122.7 37.6342ZM114.502 37.6342C114.421 38.6047 114.732 39.5693 115.383 40.3633C115.719 40.6548 116.118 40.886 116.558 41.0438C116.998 41.2016 117.469 41.2829 117.945 41.2829C118.421 41.2829 118.892 41.2016 119.332 41.0438C119.772 40.886 120.171 40.6548 120.507 40.3633C121.148 39.566 121.456 38.6031 121.378 37.6342C121.457 36.6719 121.154 35.7152 120.517 34.9228C120.2 34.6127 119.802 34.3711 119.358 34.2173C118.913 34.0634 118.433 34.0016 117.955 34.0367C117.473 34.0029 116.989 34.0652 116.54 34.2188C116.09 34.3725 115.687 34.6133 115.362 34.9228C114.731 35.7164 114.438 36.6746 114.532 37.6342H114.502Z" fill="black"/>
<path d="M132.979 42.0728H131.616L126.02 34.6393H125.969C126.044 35.5135 126.082 36.3138 126.082 37.0404V42.0728H124.985V33.2129H126.328L131.913 40.6109H131.964C131.964 40.5046 131.944 40.1531 131.903 39.5566C131.862 38.96 131.862 38.5377 131.903 38.2896V33.2218H133.02L132.979 42.0728Z" fill="black"/>
<path d="M66.3664 8.56336L65.4748 8.88233C65.2465 8.96457 65.0654 9.12187 64.9712 9.3196C64.877 9.51734 64.8776 9.73931 64.9727 9.93671L65.1981 10.4152C64.7538 10.7008 64.3602 11.0411 64.0299 11.4252L63.4765 11.2303C63.2482 11.1481 62.9914 11.1476 62.7627 11.229C62.534 11.3104 62.3521 11.4671 62.257 11.6645L61.888 12.4353C61.7929 12.6327 61.7924 12.8547 61.8865 13.0524C61.9807 13.2502 62.1619 13.4075 62.3902 13.4897L63.21 13.7821C63.2538 13.7978 63.3006 13.8059 63.348 13.8059C63.3954 13.806 63.4423 13.798 63.4861 13.7823C63.5298 13.7667 63.5696 13.7438 63.6031 13.7148C63.6367 13.6859 63.6633 13.6516 63.6814 13.6137C63.6996 13.5759 63.709 13.5354 63.709 13.4944C63.7091 13.4535 63.6998 13.4129 63.6817 13.3751C63.6636 13.3372 63.6371 13.3028 63.6036 13.2739C63.5702 13.2449 63.5305 13.2219 63.4867 13.2062L62.6669 12.9138C62.6159 12.8943 62.5757 12.8585 62.5547 12.8138C62.5336 12.7692 62.5334 12.7193 62.5541 12.6745L62.9231 11.9037C62.9456 11.8596 62.9871 11.8249 63.0387 11.8067C63.0903 11.7885 63.148 11.7883 63.1998 11.8062L64.0196 12.0986C64.097 12.1272 64.1836 12.1313 64.2641 12.1102C64.3447 12.0892 64.4141 12.0443 64.4603 11.9834C64.8291 11.5037 65.3067 11.0938 65.8643 10.7784C65.9346 10.7385 65.9865 10.6785 66.0109 10.6089C66.0353 10.5392 66.0305 10.4644 65.9975 10.3974L65.6593 9.68862C65.6386 9.64388 65.6388 9.59395 65.6598 9.54933C65.6809 9.50472 65.7211 9.46889 65.772 9.44939L66.6636 9.13042C66.7161 9.11171 66.7751 9.11171 66.8276 9.13042C66.8782 9.14923 66.9186 9.18411 66.9403 9.22788L67.2785 9.93671C67.3084 10.0039 67.3652 10.0596 67.4385 10.0937C67.5118 10.1279 67.5968 10.1382 67.6782 10.1228C68.3242 10.0108 68.9895 10.0108 69.6356 10.1228C69.7168 10.1364 69.8009 10.1253 69.8738 10.0914C69.9466 10.0574 70.0036 10.0028 70.0352 9.93671L70.3734 9.22788C70.396 9.18382 70.4374 9.14905 70.489 9.13087C70.5406 9.11269 70.5984 9.11253 70.6501 9.13042L71.5417 9.44939C71.5923 9.4682 71.6327 9.50309 71.6544 9.54685C71.6761 9.59226 71.6761 9.64321 71.6544 9.68862L71.3162 10.3974C71.2859 10.4633 71.2826 10.5361 71.3068 10.6039C71.3311 10.6716 71.3814 10.7301 71.4495 10.7696C71.9986 11.0842 72.4691 11.4909 72.8329 11.9657C72.8791 12.0266 72.9485 12.0714 73.0291 12.0925C73.1096 12.1136 73.1962 12.1095 73.2736 12.0809L74.0935 11.7885C74.146 11.7698 74.2049 11.7698 74.2574 11.7885C74.308 11.8073 74.3484 11.8422 74.3702 11.886L74.7391 12.6568C74.7607 12.7022 74.7607 12.7532 74.7391 12.7986C74.7288 12.8205 74.7135 12.8404 74.6941 12.8572C74.6748 12.8739 74.6517 12.8871 74.6264 12.8961L73.8065 13.1884C73.73 13.2158 73.6669 13.2651 73.6276 13.328C73.5884 13.391 73.5756 13.4638 73.5913 13.534C73.7208 14.0926 73.7208 14.6678 73.5913 15.2263C73.5775 15.2964 73.5912 15.3685 73.6302 15.4311C73.6692 15.4937 73.7312 15.5433 73.8065 15.5719L74.6264 15.8643C74.6773 15.8838 74.7175 15.9196 74.7386 15.9642C74.7596 16.0088 74.7598 16.0588 74.7391 16.1035L74.3702 16.8743C74.3476 16.9184 74.3062 16.9532 74.2546 16.9714C74.2029 16.9895 74.1452 16.9897 74.0935 16.9718L73.2736 16.6794C73.1962 16.6509 73.1096 16.6468 73.0291 16.6678C72.9485 16.6889 72.8791 16.7338 72.8329 16.7946C72.4691 17.2694 71.9986 17.6761 71.4495 17.9907C71.3814 18.0303 71.3311 18.0888 71.3068 18.1565C71.2826 18.2242 71.2859 18.297 71.3162 18.3629L71.6544 19.0717C71.6761 19.1171 71.6761 19.1681 71.6544 19.2135C71.6327 19.2572 71.5923 19.2921 71.5417 19.3109L70.6501 19.6299C70.5976 19.6486 70.5387 19.6486 70.4861 19.6299C70.4355 19.6111 70.3952 19.5762 70.3734 19.5324L69.9635 18.8502C69.9268 18.7738 69.8565 18.7132 69.7681 18.6816C69.6797 18.65 69.5804 18.6501 69.4921 18.6819C69.4037 18.7136 69.3336 18.7743 69.2971 18.8508C69.2606 18.9272 69.2607 19.0131 69.2974 19.0894L69.6356 19.7983C69.7302 19.9946 69.9106 20.1506 70.1377 20.2324C70.2514 20.2731 70.3733 20.2942 70.4964 20.2944C70.6195 20.2947 70.7415 20.2736 70.8551 20.2324L71.7466 19.9134C71.975 19.8312 72.1561 19.6739 72.2503 19.4762C72.3445 19.2784 72.3439 19.0564 72.2488 18.8591L72.0233 18.3806C72.4677 18.095 72.8613 17.7547 73.1916 17.3705L73.745 17.5655C73.9733 17.6477 74.2301 17.6482 74.4588 17.5667C74.6875 17.4853 74.8694 17.3287 74.9645 17.1313L75.3335 16.3604C75.4286 16.1631 75.4291 15.9411 75.335 15.7433C75.2408 15.5456 75.0596 15.3883 74.8313 15.3061L74.2779 15.1111C74.3575 14.6381 74.3575 14.1576 74.2779 13.6846L74.8313 13.4897C75.0596 13.4075 75.2408 13.2502 75.335 13.0524C75.4291 12.8547 75.4286 12.6327 75.3335 12.4353L74.9645 11.6645C74.8694 11.4671 74.6875 11.3104 74.4588 11.229C74.2301 11.1476 73.9733 11.1481 73.745 11.2303L73.1916 11.4252C72.8615 11.0409 72.4679 10.7006 72.0233 10.4152L72.2488 9.93671C72.3056 9.83942 72.3389 9.7332 72.3468 9.62446C72.3548 9.51572 72.3371 9.40671 72.295 9.30403C72.2529 9.20134 72.1871 9.10711 72.1016 9.02701C72.0162 8.94692 71.9129 8.88263 71.7979 8.83803L70.9063 8.51905C70.7933 8.47833 70.672 8.45725 70.5496 8.45703C70.4271 8.45681 70.3058 8.47745 70.1925 8.51776C70.0793 8.55808 69.9764 8.61728 69.8896 8.692C69.8028 8.76671 69.7339 8.85547 69.6868 8.95321L69.4613 9.43167C68.9142 9.36283 68.3585 9.36283 67.8114 9.43167L67.5859 8.95321C67.4913 8.7569 67.3108 8.60085 67.0838 8.51905C66.857 8.43974 66.6034 8.43974 66.3767 8.51905L66.3664 8.56336Z" fill="black"/>
<path d="M71.5622 14.3748C71.5542 13.7088 71.2432 13.0724 70.6966 12.6031C70.1501 12.1339 69.4118 11.8695 68.6415 11.8672C68.2566 11.8695 67.876 11.9374 67.5215 12.0669C67.1669 12.1964 66.8453 12.385 66.575 12.6219C66.3048 12.8589 66.0911 13.1396 65.9463 13.4479C65.8015 13.7563 65.7284 14.0863 65.7311 14.4191C65.7311 14.5013 65.7689 14.5802 65.8361 14.6384C65.9034 14.6965 65.9946 14.7292 66.0898 14.7292C66.1377 14.7292 66.1852 14.7209 66.2294 14.7048C66.2736 14.6887 66.3136 14.665 66.3471 14.6353C66.3805 14.6055 66.4067 14.5703 66.4242 14.5316C66.4416 14.493 66.4498 14.4517 66.4485 14.4102C66.4457 14.1593 66.5004 13.9104 66.6093 13.6778C66.7182 13.4452 66.8791 13.2335 67.0829 13.0548C67.2867 12.8761 67.5293 12.734 67.7967 12.6367C68.0642 12.5393 68.3513 12.4886 68.6415 12.4874C69.2273 12.4874 69.789 12.6886 70.2032 13.0467C70.6173 13.4048 70.85 13.8905 70.85 14.3969C70.85 14.9034 70.6173 15.3891 70.2032 15.7472C69.789 16.1053 69.2273 16.3064 68.6415 16.3064C68.5936 16.3064 68.5461 16.3147 68.5019 16.3309C68.4577 16.347 68.4177 16.3706 68.3842 16.4004C68.3508 16.4301 68.3246 16.4654 68.3072 16.504C68.2897 16.5427 68.2815 16.584 68.2829 16.6254C68.2829 16.7077 68.3206 16.7866 68.3879 16.8447C68.4552 16.9029 68.5464 16.9355 68.6415 16.9355C69.4171 16.9309 70.1589 16.6606 70.7044 16.1839C71.2499 15.7073 71.5547 15.0631 71.552 14.3925L71.5622 14.3748Z" fill="black"/>
<path d="M62.5644 23.7505H63.2612C63.3635 23.7505 63.4648 23.7331 63.5593 23.6992C63.6538 23.6654 63.7396 23.6158 63.812 23.5532C63.8843 23.4907 63.9417 23.4165 63.9808 23.3348C64.0199 23.2531 64.0401 23.1655 64.0401 23.0771V22.7669C64.3986 22.6893 64.7433 22.57 65.0649 22.4125L65.3211 22.634C65.394 22.6964 65.4804 22.7458 65.5753 22.7792C65.6703 22.8127 65.772 22.8296 65.8745 22.829C65.9772 22.8306 66.0792 22.8141 66.1743 22.7806C66.2695 22.7471 66.3557 22.6972 66.4279 22.634L66.9198 22.2087C66.992 22.1457 67.049 22.071 67.0877 21.9889C67.1264 21.9068 67.146 21.8189 67.1453 21.7302C67.1446 21.638 67.1214 21.5469 67.0773 21.4629C67.0331 21.3789 66.969 21.3039 66.8891 21.2429L66.6329 21.0213C66.8151 20.7433 66.953 20.4452 67.0428 20.1353H67.4015C67.608 20.1353 67.8061 20.0643 67.9522 19.938C68.0983 19.8117 68.1803 19.6404 68.1803 19.4618V18.8593C68.1803 18.6807 68.0983 18.5094 67.9522 18.3831C67.8061 18.2568 67.608 18.1859 67.4015 18.1859H67.0428C66.9524 17.876 66.8145 17.5781 66.6329 17.2998L66.8891 17.0783C66.9612 17.0153 67.0183 16.9406 67.057 16.8585C67.0957 16.7763 67.1152 16.6884 67.1145 16.5998C67.0976 16.4451 67.0177 16.3007 66.8891 16.1922L66.3971 15.7669C66.2551 15.6451 66.0642 15.5753 65.8642 15.5719C65.7615 15.5703 65.6595 15.5868 65.5644 15.6203C65.4693 15.6538 65.383 15.7037 65.3109 15.7669L65.0547 15.9884C64.7331 15.8308 64.3884 15.7116 64.0298 15.6339V15.3238C64.0298 15.1452 63.9478 14.9739 63.8017 14.8476C63.6557 14.7213 63.4576 14.6504 63.251 14.6504H62.5541C62.3476 14.6504 62.1495 14.7213 62.0034 14.8476C61.8573 14.9739 61.7753 15.1452 61.7753 15.3238V15.6339C61.4168 15.7116 61.072 15.8308 60.7505 15.9884L60.4943 15.7669C60.4214 15.7045 60.335 15.6551 60.24 15.6217C60.1451 15.5882 60.0434 15.5713 59.9409 15.5719C59.8382 15.5703 59.7362 15.5868 59.641 15.6203C59.5459 15.6538 59.4596 15.7037 59.3875 15.7669L58.8956 16.1922C58.751 16.3183 58.6699 16.4887 58.6699 16.6662C58.6699 16.8438 58.751 17.0142 58.8956 17.1403L59.1518 17.3618C58.9696 17.6398 58.8317 17.9379 58.7418 18.2479H58.3832C58.1766 18.2479 57.9785 18.3188 57.8324 18.4451C57.6864 18.5714 57.6043 18.7427 57.6043 18.9213V19.4707C57.6043 19.6493 57.6864 19.8206 57.8324 19.9469C57.9785 20.0732 58.1766 20.1441 58.3832 20.1441H58.7418C58.8317 20.4541 58.9696 20.7522 59.1518 21.0302L58.8956 21.2517C58.751 21.3778 58.6699 21.5482 58.6699 21.7258C58.6699 21.9033 58.751 22.0737 58.8956 22.1998L59.3875 22.6252C59.4603 22.6876 59.5467 22.7369 59.6417 22.7703C59.7367 22.8038 59.8383 22.8207 59.9409 22.8201C60.0436 22.8217 60.1456 22.8053 60.2407 22.7717C60.3358 22.7382 60.4221 22.6884 60.4943 22.6252L60.7505 22.4036C61.072 22.5612 61.4168 22.6804 61.7753 22.7581V23.0682C61.7753 23.2468 61.8573 23.4181 62.0034 23.5444C62.1495 23.6707 62.3476 23.7416 62.5541 23.7416L62.5644 23.7505ZM60.9452 21.7568C60.8844 21.722 60.8131 21.7035 60.7402 21.7036C60.6929 21.703 60.6458 21.7106 60.6019 21.7258C60.5579 21.741 60.5178 21.7636 60.484 21.7922L60.0331 22.1821L59.5412 21.7568C59.5311 21.747 59.5255 21.7344 59.5255 21.7214C59.5255 21.7083 59.5311 21.6957 59.5412 21.6859L59.9921 21.296C60.0437 21.2408 60.0718 21.172 60.0718 21.1011C60.0718 21.0301 60.0437 20.9613 59.9921 20.9062C59.7311 20.5712 59.55 20.1947 59.4592 19.7985C59.4428 19.7289 59.3992 19.6663 59.3358 19.6212C59.2724 19.576 59.1929 19.551 59.1108 19.5504H58.4651C58.4571 19.5504 58.4491 19.5491 58.4416 19.5464C58.4342 19.5437 58.4274 19.5398 58.4217 19.5349C58.416 19.5299 58.4114 19.5241 58.4083 19.5176C58.4053 19.5112 58.4037 19.5043 58.4037 19.4973V18.8947C58.4037 18.8878 58.4053 18.8808 58.4083 18.8744C58.4114 18.8679 58.416 18.8621 58.4217 18.8571C58.4274 18.8522 58.4342 18.8483 58.4416 18.8456C58.4491 18.8429 58.4571 18.8416 58.4651 18.8416H59.1108C59.1929 18.841 59.2724 18.816 59.3358 18.7709C59.3992 18.7257 59.4428 18.6631 59.4592 18.5935C59.5494 18.1972 59.7306 17.8206 59.9921 17.4859C60.0437 17.4307 60.0718 17.3619 60.0718 17.2909C60.0718 17.22 60.0437 17.1512 59.9921 17.096L59.5412 16.7061C59.5311 16.6964 59.5255 16.6837 59.5255 16.6707C59.5255 16.6576 59.5311 16.645 59.5412 16.6352L60.0331 16.2099L60.484 16.6086C60.5478 16.6532 60.6274 16.6776 60.7095 16.6776C60.7915 16.6776 60.8711 16.6532 60.9349 16.6086C61.3223 16.383 61.7578 16.2264 62.2159 16.1479C62.2964 16.1337 62.3689 16.096 62.4211 16.0412C62.4733 15.9863 62.5022 15.9176 62.5029 15.8466V15.2884C62.5029 15.2743 62.5094 15.2607 62.5209 15.2508C62.5324 15.2408 62.5481 15.2352 62.5644 15.2352H63.2612C63.2775 15.2352 63.2932 15.2408 63.3047 15.2508C63.3163 15.2607 63.3227 15.2743 63.3227 15.2884V15.8466C63.3234 15.9176 63.3523 15.9863 63.4045 16.0412C63.4568 16.096 63.5292 16.1337 63.6097 16.1479C64.068 16.2259 64.5036 16.3826 64.8907 16.6086C64.9545 16.6532 65.0341 16.6776 65.1161 16.6776C65.1982 16.6776 65.2778 16.6532 65.3416 16.6086L65.7925 16.2188L66.2844 16.6441C66.2908 16.6482 66.2959 16.6536 66.2995 16.6597C66.3031 16.6659 66.3049 16.6726 66.3049 16.6795C66.3049 16.6864 66.3031 16.6932 66.2995 16.6993C66.2959 16.7055 66.2908 16.7108 66.2844 16.715L65.8335 17.1048C65.7819 17.16 65.7538 17.2288 65.7538 17.2998C65.7538 17.3707 65.7819 17.4395 65.8335 17.4947C66.1101 17.8208 66.3087 18.1913 66.4176 18.5846C66.4341 18.6542 66.4776 18.7168 66.5411 18.762C66.6045 18.8072 66.6839 18.8321 66.7661 18.8327H67.4117C67.4198 18.8327 67.4278 18.8341 67.4352 18.8368C67.4427 18.8394 67.4495 18.8433 67.4552 18.8483C67.4609 18.8532 67.4654 18.8591 67.4685 18.8655C67.4716 18.872 67.4732 18.8789 67.4732 18.8859V19.4707C67.4732 19.4777 67.4716 19.4846 67.4685 19.491C67.4654 19.4975 67.4609 19.5034 67.4552 19.5083C67.4495 19.5132 67.4427 19.5171 67.4352 19.5198C67.4278 19.5225 67.4198 19.5239 67.4117 19.5239H66.7661C66.6839 19.5245 66.6045 19.5494 66.5411 19.5946C66.4776 19.6397 66.4341 19.7024 66.4176 19.772C66.3265 20.1819 66.1381 20.5711 65.8642 20.915C65.8127 20.9702 65.7845 21.039 65.7845 21.11C65.7845 21.1809 65.8127 21.2497 65.8642 21.3049L66.3152 21.6948C66.3215 21.6989 66.3267 21.7042 66.3302 21.7104C66.3338 21.7166 66.3357 21.7233 66.3357 21.7302C66.3357 21.7371 66.3338 21.7439 66.3302 21.75C66.3267 21.7562 66.3215 21.7615 66.3152 21.7657L65.8233 22.191L65.3723 21.8011C65.3085 21.7565 65.2289 21.7322 65.1469 21.7322C65.0648 21.7322 64.9853 21.7565 64.9214 21.8011C64.5341 22.0267 64.0986 22.1834 63.6404 22.2619C63.5599 22.2761 63.4875 22.3137 63.4353 22.3686C63.383 22.4234 63.3542 22.4921 63.3535 22.5631V23.1214C63.3535 23.1355 63.347 23.149 63.3355 23.159C63.3239 23.1689 63.3083 23.1745 63.292 23.1745H62.5951C62.5788 23.1745 62.5632 23.1689 62.5516 23.159C62.5401 23.149 62.5336 23.1355 62.5336 23.1214V22.5631C62.5329 22.4921 62.5041 22.4234 62.4518 22.3686C62.3996 22.3137 62.3272 22.2761 62.2467 22.2619C61.7889 22.1776 61.354 22.0182 60.9657 21.7922L60.9452 21.7568Z" fill="black"/>
<path d="M65.0444 19.2043C65.0444 18.8398 64.9194 18.4835 64.6852 18.1804C64.451 17.8773 64.1181 17.6411 63.7286 17.5016C63.3391 17.3621 62.9105 17.3256 62.497 17.3967C62.0835 17.4679 61.7037 17.6434 61.4056 17.9011C61.1075 18.1589 60.9045 18.4873 60.8222 18.8448C60.74 19.2023 60.7822 19.5729 60.9435 19.9096C61.1048 20.2464 61.3781 20.5342 61.7286 20.7368C62.0791 20.9393 62.4913 21.0474 62.9128 21.0474C63.4773 21.045 64.018 20.8501 64.4171 20.505C64.8163 20.1599 65.0417 19.6924 65.0444 19.2043ZM61.4986 19.2043C61.4986 18.9625 61.5816 18.7261 61.737 18.525C61.8924 18.3239 62.1132 18.1672 62.3716 18.0747C62.6301 17.9821 62.9144 17.9579 63.1887 18.0051C63.4631 18.0523 63.7151 18.1687 63.9129 18.3397C64.1106 18.5107 64.2453 18.7286 64.2999 18.9658C64.3545 19.203 64.3265 19.4488 64.2194 19.6723C64.1124 19.8957 63.9311 20.0867 63.6985 20.221C63.466 20.3554 63.1926 20.4271 62.9128 20.4271C62.5378 20.4271 62.1781 20.2983 61.9128 20.069C61.6476 19.8397 61.4986 19.5286 61.4986 19.2043Z" fill="black"/>
<path d="M79.1868 13.4718C78.9856 13.4718 78.7927 13.5408 78.6505 13.6638C78.5083 13.7868 78.4284 13.9535 78.4284 14.1274V25.8587H54.5914V9.72379L66.5099 1.50127L78.7051 9.95416C78.7832 10.0083 78.8728 10.0485 78.9688 10.0727C79.0649 10.0969 79.1655 10.1044 79.265 10.095C79.3644 10.0855 79.4607 10.0592 79.5484 10.0176C79.6361 9.97592 79.7134 9.91975 79.776 9.85226C79.8386 9.78478 79.8852 9.70729 79.9131 9.62424C79.9411 9.54118 79.9498 9.45418 79.9389 9.3682C79.9279 9.28222 79.8975 9.19895 79.8494 9.12313C79.8012 9.04732 79.7362 8.98045 79.6582 8.92635L66.9813 0.14562C66.8464 0.051396 66.6782 0 66.5048 0C66.3314 0 66.1632 0.051396 66.0283 0.14562L53.3617 8.91749C53.2721 8.97891 53.1998 9.05704 53.1501 9.14603C53.1004 9.23502 53.0747 9.33257 53.0747 9.43139V26.5587C53.0747 26.7326 53.1546 26.8993 53.2968 27.0223C53.439 27.1453 53.6319 27.2144 53.8331 27.2144H79.1868C79.3879 27.2144 79.5808 27.1453 79.723 27.0223C79.8652 26.8993 79.9451 26.7326 79.9451 26.5587V14.154C79.9493 14.0657 79.9327 13.9776 79.8965 13.8949C79.8602 13.8123 79.805 13.7368 79.7342 13.6731C79.6633 13.6094 79.5783 13.5587 79.4843 13.5241C79.3902 13.4895 79.289 13.4717 79.1868 13.4718Z" fill="black"/>
</svg>
